<svg version="1.0" xmlns="http://www.w3.org/2000/svg"
 width="206.000000pt" height="53.000000pt" viewBox="0 0 206.000000 53.000000"
 preserveAspectRatio="xMidYMid meet">
<metadata>
Created by potrace 1.10, written by Peter Selinger 2001-2011
</metadata>
<g transform="translate(0.000000,53.000000) scale(0.100000,-0.100000)"
fill="#000000" stroke="none">
<path d="M481 517 c-14 -17 -11 -20 54 -52 61 -29 109 -80 137 -142 19 -43 44
-56 54 -29 8 20 -40 110 -81 151 -57 57 -144 95 -164 72z"/>
<path d="M300 378 c-56 -43 -83 -95 -83 -161 0 -211 284 -276 380 -88 12 23
19 49 16 57 -9 25 -32 15 -52 -25 -56 -109 -170 -132 -251 -51 -82 82 -56 200
55 251 37 18 39 43 4 47 -17 2 -40 -8 -69 -30z"/>
<path d="M470 380 c0 -11 12 -26 29 -35 17 -8 38 -29 48 -45 19 -33 46 -36 51
-7 2 11 -14 35 -41 62 -48 48 -87 59 -87 25z"/>
<path d="M860 305 l0 -95 50 0 c38 0 50 4 50 15 0 11 -11 15 -40 15 -36 0 -40
3 -40 25 0 21 5 25 30 25 20 0 30 5 30 15 0 10 -10 15 -30 15 -25 0 -30 4 -30
25 0 23 4 25 40 25 29 0 40 4 40 15 0 11 -12 15 -50 15 l-50 0 0 -95z"/>
<path d="M980 305 c0 -80 2 -95 16 -95 13 0 15 11 12 65 -1 36 -1 65 2 65 3 0
20 -29 38 -65 47 -96 62 -88 62 30 0 78 -3 95 -15 95 -12 0 -15 -14 -15 -67
l-1 -68 -36 68 c-51 95 -63 90 -63 -28z"/>
<path d="M1122 388 c3 -7 14 -14 26 -16 20 -3 22 -9 22 -83 0 -64 3 -79 15
-79 12 0 15 16 15 80 0 73 2 80 20 80 11 0 20 7 20 15 0 12 -13 15 -61 15 -44
0 -60 -3 -57 -12z"/>
<path d="M1260 305 c0 -78 3 -95 15 -95 10 0 15 10 15 30 0 38 16 38 38 0 9
-16 25 -30 35 -30 17 0 17 2 -2 28 -20 28 -20 29 0 45 25 22 25 78 1 100 -11
10 -36 17 -60 17 l-42 0 0 -95z m85 25 c0 -31 -3 -35 -27 -38 -27 -3 -28 -1
-28 38 0 39 1 41 28 38 24 -3 27 -7 27 -38z"/>
<path d="M1425 318 c-16 -46 -30 -89 -33 -95 -2 -7 3 -13 11 -13 9 0 19 9 22
20 5 15 15 20 42 20 26 0 36 -5 40 -20 3 -11 12 -20 19 -20 8 0 14 1 14 3 0 1
-13 42 -28 92 -37 120 -51 122 -87 13z m65 -29 c0 -12 -7 -15 -26 -11 -17 3
-23 9 -20 19 4 8 9 27 13 41 l6 27 13 -30 c7 -16 13 -37 14 -46z"/>
<path d="M1566 384 c-11 -11 -16 -35 -16 -79 0 -72 14 -95 59 -95 30 0 61 27
61 53 0 24 -24 21 -35 -5 -13 -28 -29 -33 -49 -13 -21 22 -21 98 0 119 21 22
31 20 50 -9 19 -30 34 -32 34 -7 0 44 -72 69 -104 36z"/>
<path d="M1690 305 c0 -76 3 -95 14 -95 11 0 16 14 18 48 l3 47 30 -47 c18
-29 37 -48 48 -48 15 0 14 6 -13 44 -16 25 -30 47 -30 51 0 4 14 26 30 51 27
39 29 44 12 44 -11 0 -27 -16 -41 -40 -12 -22 -26 -40 -32 -40 -5 0 -9 18 -9
40 0 29 -4 40 -15 40 -12 0 -15 -17 -15 -95z"/>
<path d="M396 231 c-40 -40 -57 -65 -53 -75 11 -27 31 -18 91 43 40 40 57 65
53 75 -11 27 -31 18 -91 -43z"/>
<path d="M1030 135 c-8 -10 -6 -17 12 -30 l23 -17 -25 8 c-22 6 -23 5 -12 -9
14 -16 42 -13 42 5 0 6 -8 17 -17 25 -17 14 -17 14 0 9 20 -6 23 9 3 17 -8 3
-20 0 -26 -8z"/>
<path d="M1114 133 c3 -8 6 -23 6 -34 0 -10 5 -19 11 -19 7 0 9 10 7 25 -3 13
0 26 6 28 6 2 0 6 -13 10 -17 4 -21 2 -17 -10z"/>
<path d="M1293 143 c-7 -3 -13 -18 -13 -34 0 -24 4 -29 23 -28 21 0 21 1 2 9
-11 5 -14 9 -6 9 10 1 11 4 2 15 -10 11 -8 15 6 18 10 2 14 6 8 9 -5 4 -16 4
-22 2z"/>
<path d="M1541 137 c-23 -23 -4 -71 25 -60 8 3 14 18 14 33 0 30 -21 45 -39
27z"/>
<path d="M1723 143 c-18 -6 -16 -60 2 -66 8 -4 17 -2 20 3 4 6 -2 10 -12 10
-14 0 -15 2 -4 9 11 7 11 10 0 16 -9 6 -8 10 6 15 10 4 14 9 9 12 -5 3 -15 3
-21 1z"/>
<path d="M850 112 c0 -21 5 -28 20 -28 10 0 17 2 15 5 -3 2 0 10 6 17 14 17 3
34 -22 34 -14 0 -19 -7 -19 -28z"/>
<path d="M942 112 c-9 -27 -8 -29 18 -29 26 0 27 2 18 29 -6 15 -14 28 -18 28
-4 0 -12 -13 -18 -28z"/>
<path d="M1190 111 c0 -21 5 -28 18 -27 18 1 36 32 26 47 -3 5 -14 9 -25 9
-14 0 -19 -7 -19 -29z"/>
<path d="M1364 112 c-10 -27 -10 -29 17 -29 33 0 32 -1 17 32 -14 32 -21 32
-34 -3z"/>
<path d="M1450 110 c0 -23 5 -30 19 -30 21 0 33 22 25 45 -4 8 -15 15 -25 15
-14 0 -19 -7 -19 -30z"/>
<path d="M1620 111 c0 -21 5 -28 18 -27 18 1 36 32 26 47 -3 5 -14 9 -25 9
-14 0 -19 -7 -19 -29z"/>
<path d="M1790 129 c0 -7 8 -18 18 -26 16 -14 16 -14 0 -9 -17 5 -24 -4 -12
-17 8 -8 34 3 34 15 0 6 -8 17 -17 25 -17 14 -17 14 0 9 9 -3 17 -1 17 4 0 6
-9 10 -20 10 -11 0 -20 -5 -20 -11z"/>
</g>
</svg>
